<svg xmlns="http://www.w3.org/2000/svg" version="1.1" xmlns:xlink="http://www.w3.org/1999/xlink" xmlns:svgjs="http://svgjs.dev/svgjs" width="128" height="128" viewBox="0 0 128 128"><g transform="matrix(0.8046875,0,0,0.8046875,12.760752631578946,12.760752631578946)"><svg viewBox="0 0 95 95" data-background-color="#dfdad6" preserveAspectRatio="xMidYMid meet" height="128" width="128" xmlns="http://www.w3.org/2000/svg" xmlns:xlink="http://www.w3.org/1999/xlink"><g id="tight-bounds" transform="matrix(1,0,0,1,-0.24049999999999727,-0.24049999999999727)"><svg viewBox="0 0 95.48100000000001 95.48100000000001" height="95.48100000000001" width="95.48100000000001"><g><svg viewBox="0 0 95.48100000000001 95.48100000000001" height="95.48100000000001" width="95.48100000000001"><g><svg viewBox="0 0 95.48100000000001 95.48100000000001" height="95.48100000000001" width="95.48100000000001"><g id="textblocktransform"><svg viewBox="0 0 95.48100000000001 95.48100000000001" height="95.48100000000001" width="95.48100000000001" id="textblock"><g><svg viewBox="0 0 95.48100000000001 95.48100000000001" height="95.48100000000001" width="95.48100000000001"><g><svg viewBox="0 0 95.48100000000001 95.48100000000001" height="95.48100000000001" width="95.48100000000001"><g><svg xmlns="http://www.w3.org/2000/svg" xmlns:xlink="http://www.w3.org/1999/xlink" version="1.1" x="0" y="0" viewBox="2.5 2.5 95 95" style="enable-background:new 0 0 100 100;" xml:space="preserve" height="95.48100000000001" width="95.48100000000001" class="icon-icon-0" data-fill-palette-color="accent" id="icon-0"><path class="" d="M97.5 59.8V40.2H80.3C79.7 38.6 79.1 37 78.3 35.6L90.6 23.3 76.7 9.5 64.1 22C62.7 21.3 61.2 20.7 59.7 20.2V2.5H40.2V20.2C38.7 20.7 37.2 21.3 35.8 22L23.3 9.5 9.5 23.3 21.8 35.6C21 37.1 20.3 38.6 19.8 40.2H2.5V59.7H19.2C19.7 61.5 20.4 63.2 21.2 64.9L9.5 76.7 23.3 90.5 34.8 79C36.5 79.9 38.3 80.7 40.2 81.3V97.5H59.7V81.3C61.6 80.7 63.4 79.9 65.1 79L76.6 90.5 90.4 76.7 78.8 64.9C79.6 63.3 80.3 61.5 80.8 59.7H97.5zM50 69.7C39.6 69.7 31.1 61.2 31.1 50.8S39.6 31.9 50 31.9C60.5 31.9 68.9 40.4 68.9 50.8S60.5 69.7 50 69.7M43 38L63.1 50.8 43 63.6z" fill-rule="evenodd" clip-rule="evenodd" fill="#ea6b62" data-fill-palette-color="accent"></path></svg></g></svg></g></svg></g></svg></g></svg></g></svg></g><defs></defs></svg><rect width="95.48100000000001" height="95.48100000000001" fill="none" stroke="none" visibility="hidden"></rect></g></svg></g></svg>