<svg xmlns="http://www.w3.org/2000/svg" version="1.1" xmlns:xlink="http://www.w3.org/1999/xlink" xmlns:svgjs="http://svgjs.dev/svgjs" width="2000" height="691" viewBox="0 0 2000 691"><g transform="matrix(1,0,0,1,-1.2121212121212466,-0.9895006383146097)"><svg viewBox="0 0 396 137" data-background-color="#dfdad6" preserveAspectRatio="xMidYMid meet" height="691" width="2000" xmlns="http://www.w3.org/2000/svg" xmlns:xlink="http://www.w3.org/1999/xlink"><g id="tight-bounds" transform="matrix(1,0,0,1,0.2400000000000091,0.19618174739377992)"><svg viewBox="0 0 395.52 136.6076365052124" height="136.6076365052124" width="395.52"><g><svg viewBox="0 0 634.3874758489529 219.10946021499035" height="136.6076365052124" width="395.52"><g transform="matrix(1,0,0,1,238.86747584895295,67.70800355764979)"><svg viewBox="0 0 395.52 83.69345309969076" height="83.69345309969076" width="395.52"><g id="textblocktransform"><svg viewBox="0 0 395.52 83.69345309969076" height="83.69345309969076" width="395.52" id="textblock"><g><svg viewBox="0 0 395.52 83.69345309969076" height="83.69345309969076" width="395.52"><g transform="matrix(1,0,0,1,0,0)"><svg width="395.52" viewBox="0.05 -34.47 165.78 35.08" height="83.69345309969076" data-palette-color="#e33e33"><path d="M15.28 0L10.72 0 0.05-33.84 4.27-33.84 9.67-15.28Q10.52-12.33 11.27-9.7 12.01-7.08 12.96-4.1L12.96-4.1 13.18-4.1Q14.16-7.08 14.86-9.7 15.55-12.33 16.48-15.28L16.48-15.28 22.19-33.84 26.32-33.84 15.28 0ZM35.01 0L31 0 31-33.84 35.01-33.84 35.01 0ZM52.92 0L44.38 0 44.38-33.84 52.73-33.84Q60.54-33.84 64.59-29.44 68.65-25.05 68.65-17.04L68.65-17.04Q68.65-9.01 64.62-4.5 60.59 0 52.92 0L52.92 0ZM48.38-30.54L48.38-3.3 52.41-3.3Q58.47-3.3 61.47-6.95 64.47-10.6 64.47-17.04L64.47-17.04Q64.47-23.46 61.47-27 58.47-30.54 52.41-30.54L52.41-30.54 48.38-30.54ZM94.45 0L73.38 0 73.38-2.42Q78.39-7.35 81.85-11.13 85.32-14.92 87.13-17.97 88.93-21.02 88.93-23.71L88.93-23.71Q88.93-26.56 87.37-28.41 85.81-30.25 82.56-30.25L82.56-30.25Q80.51-30.25 78.72-29.09 76.92-27.93 75.48-26.27L75.48-26.27 73.28-28.44Q75.24-30.71 77.57-32.1 79.9-33.5 83.07-33.5L83.07-33.5Q87.59-33.5 90.23-30.86 92.86-28.22 92.86-23.9L92.86-23.9Q92.86-20.7 91.07-17.53 89.27-14.36 86.11-10.84 82.95-7.32 78.85-3.13L78.85-3.13Q80.14-3.25 81.62-3.32 83.1-3.39 84.37-3.39L84.37-3.39 94.45-3.39 94.45 0ZM114.64 0.61L114.64 0.61Q110.2 0.61 106.75-1.48 103.31-3.56 101.37-7.48 99.43-11.4 99.43-16.89L99.43-16.89Q99.43-22.34 101.43-26.27 103.43-30.2 106.92-32.34 110.41-34.47 114.91-34.47L114.91-34.47Q118.42-34.47 120.77-33.15 123.11-31.84 124.57-30.3L124.57-30.3 122.38-27.76Q121.11-29.13 119.33-30.02 117.54-30.91 115-30.91L115-30.91Q111.54-30.91 108.97-29.21 106.41-27.51 105.01-24.4 103.6-21.29 103.6-16.99L103.6-16.99Q103.6-10.5 106.56-6.71 109.51-2.93 115-2.93L115-2.93Q116.86-2.93 118.54-3.45 120.23-3.98 121.28-4.98L121.28-4.98 121.28-14.06 113.98-14.06 113.98-17.41 124.99-17.41 124.99-3.3Q123.38-1.59 120.69-0.49 118.01 0.61 114.64 0.61ZM137.15 0L133.14 0 133.14-33.84 137.15-33.84 137.15 0ZM150.52 0L146.52 0 146.52-33.84 165.83-33.84 165.83-30.44 150.52-30.44 150.52-18.7 163.51-18.7 163.51-15.28 150.52-15.28 150.52 0Z" opacity="1" transform="matrix(1,0,0,1,0,0)" fill="#e33e33" class="wordmark-text-0" data-fill-palette-color="primary" id="text-0"></path></svg></g></svg></g></svg></g></svg></g><g><svg viewBox="0 0 219.10946021499035 219.10946021499035" height="219.10946021499035" width="219.10946021499035"><g><svg xmlns="http://www.w3.org/2000/svg" xmlns:xlink="http://www.w3.org/1999/xlink" version="1.1" x="0" y="0" viewBox="2.5 2.5 95 95" style="enable-background:new 0 0 100 100;" xml:space="preserve" height="219.10946021499035" width="219.10946021499035" class="icon-icon-0" data-fill-palette-color="accent" id="icon-0"><path class="" d="M97.5 59.8V40.2H80.3C79.7 38.6 79.1 37 78.3 35.6L90.6 23.3 76.7 9.5 64.1 22C62.7 21.3 61.2 20.7 59.7 20.2V2.5H40.2V20.2C38.7 20.7 37.2 21.3 35.8 22L23.3 9.5 9.5 23.3 21.8 35.6C21 37.1 20.3 38.6 19.8 40.2H2.5V59.7H19.2C19.7 61.5 20.4 63.2 21.2 64.9L9.5 76.7 23.3 90.5 34.8 79C36.5 79.9 38.3 80.7 40.2 81.3V97.5H59.7V81.3C61.6 80.7 63.4 79.9 65.1 79L76.6 90.5 90.4 76.7 78.8 64.9C79.6 63.3 80.3 61.5 80.8 59.7H97.5zM50 69.7C39.6 69.7 31.1 61.2 31.1 50.8S39.6 31.9 50 31.9C60.5 31.9 68.9 40.4 68.9 50.8S60.5 69.7 50 69.7M43 38L63.1 50.8 43 63.6z" fill-rule="evenodd" clip-rule="evenodd" fill="#ea6b62" data-fill-palette-color="accent"></path></svg></g></svg></g></svg></g><defs></defs></svg><rect width="395.52" height="136.6076365052124" fill="none" stroke="none" visibility="hidden"></rect></g></svg></g></svg>